<?xml version="1.0" ?><svg id="Layer_1" style="enable-background:new 0 0 640 218;" version="1.1" viewBox="0 0 640 218" xml:space="preserve" xmlns="http://www.w3.org/2000/svg" xmlns:xlink="http://www.w3.org/1999/xlink"><style type="text/css">
	.st0{fill:#A24689;}
	.st1{fill:#8F8F8F;}
</style><g><path class="st0" d="M84.2,55.7c10.1,0,19.7,2,28.7,6c9,4,16.9,9.5,23.7,16.3c6.8,6.8,12.2,14.8,16.3,23.9c4,9.1,6,18.8,6,29.1   c0,10.3-2,20-5.9,29c-3.9,9-9.3,16.9-16,23.7c-6.7,6.8-14.6,12.2-23.7,16.1c-9.1,3.9-18.9,5.9-29.5,5.9c-10.3,0-20.1-1.9-29.1-5.6   c-9.1-3.7-17.1-8.9-23.9-15.7c-6.8-6.7-12.2-14.6-16.1-23.7c-3.9-9.1-5.9-19-5.9-29.8c0-10.3,1.9-20,5.7-29c3.8-9,9.1-16.8,16-23.6   c6.8-6.7,14.8-12.1,24-16.1C63.8,58.4,73.7,56.1,84.2,55.7z M83.9,86.4c-6,0-11.7,1.1-17.2,3.4c-5.5,2.3-10.2,5.4-14.3,9.5   c-4,4-7.2,8.7-9.6,14.1c-2.4,5.4-3.6,11.3-3.6,17.7c0,6,1.2,11.7,3.6,17.2c2.4,5.5,5.6,10.3,9.6,14.4c4,4.1,8.8,7.4,14.3,9.8   c5.5,2.4,11.2,3.6,17.2,3.6c6,0,11.7-1.2,17.2-3.6c5.5-2.4,10.2-5.6,14.3-9.8c4-4.1,7.2-8.9,9.6-14.4c2.4-5.5,3.6-11.2,3.6-17.2   c-0.6-12.2-5-22.5-13-30.9c-8.1-8.4-18.5-13-31.3-13.8L83.9,86.4L83.9,86.4z"/><path class="st1" d="M300,8c3.5-0.2,6.8,1.2,9.9,4.2c3.1,3,4.6,6.3,4.6,9.8v108.8c0,10.1-2.1,19.7-6.2,28.8   c-4.1,9.1-9.7,17.1-16.7,23.9c-7,6.8-15,12.2-24,16.3c-9,4-18.5,6-28.4,6c-10.1,0-19.7-2-28.8-5.9c-9.1-3.9-17.1-9.3-23.9-16.1   c-6.8-6.8-12.2-14.8-16.3-23.9c-4-9.1-6-18.8-6-29.1c0-11.2,1.8-21,5.4-29.5c3.6-8.5,9-16.4,16.3-23.9v0.3   c7.6-7.2,16.1-12.7,25.3-16.4c9.2-3.7,18.7-5.6,28.4-5.6c5.8,0,12.7,0.9,20.6,2.8c8,1.9,15.9,5.5,23.7,10.9V23.5   c0-2.1,0.4-4,1.2-5.9c0.8-1.9,1.9-3.6,3.3-5.1c1.3-1.6,2.9-2.7,4.8-3.6c1.9-0.8,3.7-1.1,5.6-0.9L300,8L300,8z M283.9,130.8   c0-5.6-1.2-11.1-3.6-16.4c-2.4-5.4-5.6-10.2-9.8-14.4c-4.1-4.2-8.9-7.6-14.3-10.1c-5.4-2.5-11.1-3.7-17.1-3.7   c-6,0-11.7,1.2-17.2,3.6c-5.5,2.4-10.2,5.6-14.3,9.6c-4,4-7.2,8.8-9.6,14.3c-2.4,5.5-3.6,11.2-3.6,17.2c0,6.2,1.2,12,3.6,17.4   c2.4,5.4,5.6,10.1,9.6,14.1c4,4,8.8,7.2,14.3,9.6c5.5,2.4,11.2,3.6,17.2,3.6c6,0,11.7-1.2,17.1-3.6c5.4-2.4,10.1-5.6,14.3-9.6   c4.1-4,7.4-8.7,9.8-14.1C282.7,142.8,283.9,137,283.9,130.8z"/><path class="st1" d="M398.6,55.7c10.1,0,19.7,2,28.7,6c9,4,16.9,9.5,23.7,16.3c6.8,6.8,12.2,14.8,16.3,23.9c4,9.1,6,18.8,6,29.1   c0,10.3-2,20-5.9,29c-3.9,9-9.3,16.9-16,23.7c-6.7,6.8-14.6,12.2-23.7,16.1c-9.1,3.9-18.9,5.9-29.5,5.9c-10.3,0-20.1-1.9-29.1-5.6   c-9.1-3.7-17.1-8.9-23.9-15.7c-6.8-6.7-12.2-14.6-16.1-23.7c-3.9-9.1-5.9-19-5.9-29.8c0-10.3,1.9-20,5.7-29c3.8-9,9.1-16.8,16-23.6   c6.8-6.7,14.8-12.1,24-16.1C378.2,58.4,388.1,56.1,398.6,55.7z M398.3,86.4c-6,0-11.7,1.1-17.2,3.4c-5.5,2.3-10.2,5.4-14.3,9.5   c-4,4-7.2,8.7-9.6,14.1c-2.4,5.4-3.6,11.3-3.6,17.7c0,6,1.2,11.7,3.6,17.2c2.4,5.5,5.6,10.3,9.6,14.4c4,4.1,8.8,7.4,14.3,9.8   c5.5,2.4,11.2,3.6,17.2,3.6c6,0,11.7-1.2,17.2-3.6c5.5-2.4,10.2-5.6,14.3-9.8c4-4.1,7.2-8.9,9.6-14.4c2.4-5.5,3.6-11.2,3.6-17.2   c-0.6-12.2-5-22.5-13-30.9c-8.1-8.4-18.5-13-31.3-13.8L398.3,86.4L398.3,86.4z"/><path class="st1" d="M556.1,55.7c10.1,0,19.7,2,28.7,6c9,4,16.9,9.5,23.7,16.3c6.8,6.8,12.2,14.8,16.3,23.9c4,9.1,6,18.8,6,29.1   c0,10.3-2,20-5.9,29c-3.9,9-9.3,16.9-16,23.7c-6.7,6.8-14.6,12.2-23.7,16.1c-9.1,3.9-18.9,5.9-29.5,5.9c-10.3,0-20.1-1.9-29.1-5.6   c-9.1-3.7-17.1-8.9-23.9-15.7c-6.8-6.7-12.2-14.6-16.1-23.7c-3.9-9.1-5.9-19-5.9-29.8c0-10.3,1.9-20,5.7-29c3.8-9,9.1-16.8,16-23.6   c6.8-6.7,14.8-12.1,24-16.1C535.7,58.4,545.6,56.1,556.1,55.7z M555.8,86.4c-6,0-11.7,1.1-17.2,3.4c-5.5,2.3-10.2,5.4-14.3,9.5   c-4,4-7.2,8.7-9.6,14.1c-2.4,5.4-3.6,11.3-3.6,17.7c0,6,1.2,11.7,3.6,17.2c2.4,5.5,5.6,10.3,9.6,14.4c4,4.1,8.8,7.4,14.3,9.8   c5.5,2.4,11.2,3.6,17.2,3.6c6,0,11.7-1.2,17.2-3.6c5.5-2.4,10.2-5.6,14.3-9.8c4-4.1,7.2-8.9,9.6-14.4c2.4-5.5,3.6-11.2,3.6-17.2   c-0.6-12.2-5-22.5-13-30.9c-8.1-8.4-18.5-13-31.3-13.8L555.8,86.4L555.8,86.4z"/></g></svg>